<?xml version="1.0" encoding="utf-8"?>
<!-- Generator: Adobe Illustrator 25.1.0, SVG Export Plug-In . SVG Version: 6.00 Build 0)  -->
<svg version="1.1" id="レイヤー_2" xmlns="http://www.w3.org/2000/svg" xmlns:xlink="http://www.w3.org/1999/xlink" x="0px"
	 y="0px" viewBox="0 0 1034 236" style="enable-background:new 0 0 1034 236;" xml:space="preserve">
<style type="text/css">
	.st0{fill:none;stroke:#333333;stroke-width:7;stroke-linecap:round;stroke-linejoin:round;stroke-miterlimit:10;}
	.st1{fill:#FFFFFF;stroke:#333333;stroke-width:7;stroke-miterlimit:10;}
</style>
<polyline class="st0" points="42,47 64.82,47 87.64,47 "/>
<path class="st1" d="M64.82,176.72"/>
<line class="st0" x1="64.82" y1="47" x2="64.82" y2="176.72"/>
<line class="st0" x1="145.5" y1="168.5" x2="148.5" y2="170.5"/>
<path class="st0" d="M283.5,71.5c-1-34-48-39-34,27c6,13,21.51,12.27,28,22c6,9,13.68,32.44-2.3,50c-4.69,5.15-31.7,12-31.7-26"/>
<path class="st0" d="M347.5,88.5v73.46c0,0,0.6,10.65,12.3,12.6c13.4-0.11,19.7-14.06,21.7-17.06c1-6,0-69,0-69l0.44,87.86"/>
<path class="st0" d="M484.5,103.5c-10-19-15.26-15-15.26-15s-19.7,3.86-18.72,43.93c0.98,40.07,18.98,54.83,33.98,28.45
	c1-38.76,0-72.39,0-72.39v99.01c0,0-4,13-15,17s-19.03-13.12-19.02-18.06"/>
<line class="st0" x1="562.5" y1="61.5" x2="565.5" y2="64.5"/>
<line class="st0" x1="564" y1="88.5" x2="564" y2="176.36"/>
<path class="st0" d="M639.52,88.5c0,0-0.75,87.75,0,87.86c0.98,0.14-7.62-86.86,13.68-87.86c16.3-5,10.3,80,11.3,88
	s-7.91-83.94,13.9-88c16.1-3,10.8,87.86,10.8,87.86"/>
<path class="st0" d="M764.08,88.29c-22.58-0.22-23.58,81.21-2.58,85.21C792.5,173.5,785.5,88.5,764.08,88.29z"/>
<line class="st0" x1="846.5" y1="89.5" x2="882.16" y2="89.5"/>
<line class="st0" x1="864.33" y1="61.52" x2="864.22" y2="178.76"/>
<path class="st0" d="M962.8,89.5c-20.02,3.53-25.77,84,0,84C993.5,173.5,985.5,85.5,962.8,89.5z"/>
</svg>
